<?xml version="1.0" encoding="UTF-8"?>
<svg version="1.1" xmlns="http://www.w3.org/2000/svg" width="2958" height="2958">
<path d="M0 0 C0.12829144 42.62693783 -0.19025439 85.23971619 -0.69631848 127.86325818 C-0.80544334 137.06756089 -0.91034463 146.27191084 -1.01522597 155.47626272 C-1.21120585 172.66540242 -1.41038847 189.85450358 -1.6114254 207.04358482 C-1.81463453 224.41953316 -2.01629507 241.7954985 -2.21613693 259.1714859 C-2.22884521 260.27637367 -2.24155349 261.38126144 -2.25464686 262.51963065 C-2.3194629 268.15548234 -2.38425468 273.79133432 -2.44903815 279.42718639 C-2.91603503 320.04921873 -3.38637362 360.67121183 -3.85854912 401.29318428 C-4.32620843 441.52733167 -4.79247194 481.76149484 -5.25688362 521.99567986 C-5.27135982 523.24976071 -5.28583602 524.50384157 -5.3007509 525.79592487 C-5.43300058 537.25280303 -5.56523482 548.70968136 -5.69744988 560.16655991 C-6.02608177 588.64351521 -6.35493857 617.12046791 -6.68395329 645.59741879 C-6.69893187 646.89386186 -6.71391046 648.19030492 -6.72934295 649.52603415 C-7.20614576 690.79360657 -7.683892 732.061168 -8.16236782 773.32872105 C-8.17011801 773.99716097 -8.1778682 774.6656009 -8.18585324 775.35429658 C-8.42170933 795.69632439 -8.65762953 816.03835145 -8.89356138 836.38037838 C-9.15457707 858.88513632 -9.41557934 881.38989443 -9.67651367 903.89465332 C-9.68435846 904.57123913 -9.69220325 905.24782495 -9.70028576 905.94491336 C-10.44480505 970.15760719 -11.18707649 1034.37032694 -11.9288303 1098.58305277 C-11.96809008 1101.98171134 -12.00735064 1105.38036991 -12.0466111 1108.77902848 C-12.20323187 1122.3372403 -12.35984828 1135.89545216 -12.51646221 1149.45366406 C-12.52419324 1150.12294576 -12.53192427 1150.79222746 -12.53988957 1151.48179043 C-12.62563923 1158.90521824 -12.71138773 1166.32864607 -12.79713411 1173.75207392 C-13.86483939 1266.18768917 -14.93392868 1358.62328843 -16.00337191 1451.05888359 C-16.20710828 1468.66852004 -16.41080851 1486.27815692 -16.61448276 1503.8877941 C-17.24092913 1558.04966418 -17.86782965 1612.21152896 -18.49606424 1666.37337834 C-18.54819796 1670.86808494 -18.60033041 1675.36279155 -18.65246201 1679.85749817 C-18.6716508 1681.51188645 -18.6716508 1681.51188645 -18.69122725 1683.19969671 C-18.89194176 1700.50542432 -19.0922318 1717.81115681 -19.29233961 1735.11689144 C-19.49019336 1752.22675511 -19.68854108 1769.336613 -19.88737875 1786.44646527 C-19.99326877 1795.55922374 -20.09897619 1804.67198421 -20.20406549 1813.78475196 C-20.75089505 1861.19057062 -21.35158743 1908.59545938 -22 1956 C-26.54704991 1956.0303064 -31.09409998 1956.06058989 -35.64115017 1956.0908536 C-37.18277014 1956.10111719 -38.72439006 1956.11138665 -40.26600994 1956.12166251 C-80.61612881 1956.39060152 -120.96617453 1956.58653573 -161.3169923 1956.71491461 C-166.8006041 1956.73242433 -172.28421372 1956.75054486 -177.76782227 1956.76904297 C-179.40534165 1956.77455149 -179.40534165 1956.77455149 -181.07594224 1956.78017129 C-198.7483332 1956.84107655 -216.42008606 1956.95145223 -234.09209857 1957.08013915 C-252.22768088 1957.2110995 -270.36292921 1957.28883078 -288.49896497 1957.31723893 C-299.688713 1957.33644157 -310.87665747 1957.39706597 -322.06585022 1957.51083054 C-329.74064292 1957.58488399 -337.41450448 1957.60719136 -345.08962844 1957.58901928 C-349.51743527 1957.58005761 -353.94209354 1957.59370166 -358.36933899 1957.66887665 C-386.35024341 1958.12107594 -386.35024341 1958.12107594 -392.45703697 1952.93144608 C-395.45201588 1949.60262969 -397.18859117 1946.0709495 -399 1942 C-400.80984113 1939.52555475 -400.80984113 1939.52555475 -402.56640625 1937.58984375 C-403.06599854 1936.98003662 -403.56559082 1936.37022949 -404.08032227 1935.74194336 C-404.56944092 1935.14647705 -405.05855957 1934.55101074 -405.5625 1933.9375 C-409.4680991 1929.15717629 -413.31878595 1924.34572292 -417.0625 1919.4375 C-421.12342779 1914.11492474 -425.27635829 1908.87524599 -429.46899414 1903.65600586 C-432.83942385 1899.45792147 -436.18093915 1895.23879339 -439.5 1891 C-443.30428539 1886.1430426 -447.13997867 1881.31277608 -451 1876.5 C-457.62221877 1868.24113955 -464.15989498 1859.91712242 -470.67578125 1851.57421875 C-475.57538635 1845.30926651 -480.53134917 1839.09746294 -485.5625 1832.9375 C-490.28835664 1827.15132846 -494.87667911 1821.28513519 -499.40625 1815.34375 C-502.36211063 1811.50113119 -505.43107807 1807.7524869 -508.5 1804 C-513.24855577 1798.19376127 -517.85853224 1792.30893823 -522.40625 1786.34375 C-525.36211201 1782.50112939 -528.43112564 1778.75252788 -531.5 1775 C-535.42612763 1770.19823246 -539.30182896 1765.37009043 -543.0625 1760.4375 C-547.12342779 1755.11492474 -551.27635829 1749.87524599 -555.46899414 1744.65600586 C-558.83942385 1740.45792147 -562.18093915 1736.23879339 -565.5 1732 C-569.30428539 1727.1430426 -573.13997867 1722.31277608 -577 1717.5 C-583.62221877 1709.24113955 -590.15989498 1700.91712242 -596.67578125 1692.57421875 C-601.57538635 1686.30926651 -606.53134917 1680.09746294 -611.5625 1673.9375 C-616.28835664 1668.15132846 -620.87667911 1662.28513519 -625.40625 1656.34375 C-628.36211063 1652.50113119 -631.43107807 1648.7524869 -634.5 1645 C-639.24855577 1639.19376127 -643.85853224 1633.30893823 -648.40625 1627.34375 C-651.36211201 1623.50112939 -654.43112564 1619.75252788 -657.5 1616 C-661.42612763 1611.19823246 -665.30182896 1606.37009043 -669.0625 1601.4375 C-673.12342779 1596.11492474 -677.27635829 1590.87524599 -681.46899414 1585.65600586 C-684.83942385 1581.45792147 -688.18093915 1577.23879339 -691.5 1573 C-695.30428539 1568.1430426 -699.13997867 1563.31277608 -703 1558.5 C-709.62221877 1550.24113955 -716.15989498 1541.91712242 -722.67578125 1533.57421875 C-727.57538635 1527.30926651 -732.53134917 1521.09746294 -737.5625 1514.9375 C-742.28835664 1509.15132846 -746.87667911 1503.28513519 -751.40625 1497.34375 C-754.36211063 1493.50113119 -757.43107807 1489.7524869 -760.5 1486 C-765.24855577 1480.19376127 -769.85853224 1474.30893823 -774.40625 1468.34375 C-777.36211201 1464.50112939 -780.43112564 1460.75252788 -783.5 1457 C-787.42612763 1452.19823246 -791.30182896 1447.37009043 -795.0625 1442.4375 C-799.12342779 1437.11492474 -803.27635829 1431.87524599 -807.46899414 1426.65600586 C-810.83942385 1422.45792147 -814.18093915 1418.23879339 -817.5 1414 C-821.30428539 1409.1430426 -825.13997867 1404.31277608 -829 1399.5 C-835.62221877 1391.24113955 -842.15989498 1382.91712242 -848.67578125 1374.57421875 C-853.57538635 1368.30926651 -858.53134917 1362.09746294 -863.5625 1355.9375 C-868.28835664 1350.15132846 -872.87667911 1344.28513519 -877.40625 1338.34375 C-880.36211063 1334.50113119 -883.43107807 1330.7524869 -886.5 1327 C-891.24855577 1321.19376127 -895.85853224 1315.30893823 -900.40625 1309.34375 C-903.36211201 1305.50112939 -906.43112564 1301.75252788 -909.5 1298 C-913.42612763 1293.19823246 -917.30182896 1288.37009043 -921.0625 1283.4375 C-925.12342779 1278.11492474 -929.27635829 1272.87524599 -933.46899414 1267.65600586 C-936.83942385 1263.45792147 -940.18093915 1259.23879339 -943.5 1255 C-947.30428539 1250.1430426 -951.13997867 1245.31277608 -955 1240.5 C-961.62221877 1232.24113955 -968.15989498 1223.91712242 -974.67578125 1215.57421875 C-979.57538635 1209.30926651 -984.53134917 1203.09746294 -989.5625 1196.9375 C-994.28835664 1191.15132846 -998.87667911 1185.28513519 -1003.40625 1179.34375 C-1006.36211063 1175.50113119 -1009.43107807 1171.7524869 -1012.5 1168 C-1017.24855577 1162.19376127 -1021.85853224 1156.30893823 -1026.40625 1150.34375 C-1029.36211201 1146.50112939 -1032.43112564 1142.75252788 -1035.5 1139 C-1039.42612763 1134.19823246 -1043.30182896 1129.37009043 -1047.0625 1124.4375 C-1051.12342779 1119.11492474 -1055.27635829 1113.87524599 -1059.46899414 1108.65600586 C-1062.83942385 1104.45792147 -1066.18093915 1100.23879339 -1069.5 1096 C-1073.30428539 1091.1430426 -1077.13997867 1086.31277608 -1081 1081.5 C-1087.62221877 1073.24113955 -1094.15989498 1064.91712242 -1100.67578125 1056.57421875 C-1106.11534787 1049.61883676 -1111.6391963 1042.74052246 -1117.22509766 1035.90209961 C-1121.46524554 1030.69575409 -1125.56820567 1025.39864599 -1129.6328125 1020.0546875 C-1132.77886304 1015.99493251 -1136.06480722 1012.06528836 -1139.3828125 1008.14453125 C-1141 1006 -1141 1006 -1141 1004 C-1145.05429617 1007.89721089 -1148.60643137 1012.05490729 -1152.125 1016.4375 C-1152.6926709 1017.14052246 -1153.2603418 1017.84354492 -1153.84521484 1018.56787109 C-1159.29264992 1025.32962728 -1164.657296 1032.15539385 -1170 1039 C-1176.32794869 1047.10681567 -1182.7283129 1055.14369248 -1189.23388672 1063.10888672 C-1193.3940625 1068.21741958 -1197.41186608 1073.4168633 -1201.40625 1078.65625 C-1204.36211201 1082.49887061 -1207.43112564 1086.24747212 -1210.5 1090 C-1214.42612763 1094.80176754 -1218.30182896 1099.62990957 -1222.0625 1104.5625 C-1226.12342779 1109.88507526 -1230.27635829 1115.12475401 -1234.46899414 1120.34399414 C-1237.83942385 1124.54207853 -1241.18093915 1128.76120661 -1244.5 1133 C-1248.30428539 1137.8569574 -1252.13997867 1142.68722392 -1256 1147.5 C-1259.87763496 1152.3359692 -1263.73557846 1157.1862833 -1267.5625 1162.0625 C-1268.01383301 1162.63758301 -1268.46516602 1163.21266602 -1268.93017578 1163.80517578 C-1271.18176335 1166.67633313 -1273.42989571 1169.5501622 -1275.67578125 1172.42578125 C-1281.11824039 1179.3848618 -1286.64538923 1186.26652826 -1292.23388672 1193.10888672 C-1296.3940625 1198.21741958 -1300.41186608 1203.4168633 -1304.40625 1208.65625 C-1307.90238176 1213.20122129 -1311.55381662 1217.62032798 -1315.18359375 1222.05859375 C-1318.52606496 1226.15607022 -1321.79405501 1230.29479942 -1325 1234.5 C-1328.74368174 1239.41054358 -1332.59100949 1244.22020319 -1336.5 1249 C-1340.42612763 1253.80176754 -1344.30182896 1258.62990957 -1348.0625 1263.5625 C-1352.12342779 1268.88507526 -1356.27635829 1274.12475401 -1360.46899414 1279.34399414 C-1363.83942385 1283.54207853 -1367.18093915 1287.76120661 -1370.5 1292 C-1374.30428539 1296.8569574 -1378.13997867 1301.68722392 -1382 1306.5 C-1385.87763496 1311.3359692 -1389.73557846 1316.1862833 -1393.5625 1321.0625 C-1394.01383301 1321.63758301 -1394.46516602 1322.21266602 -1394.93017578 1322.80517578 C-1397.18176335 1325.67633313 -1399.42989571 1328.5501622 -1401.67578125 1331.42578125 C-1407.11824039 1338.3848618 -1412.64538923 1345.26652826 -1418.23388672 1352.10888672 C-1422.3940625 1357.21741958 -1426.41186608 1362.4168633 -1430.40625 1367.65625 C-1433.90238176 1372.20122129 -1437.55381662 1376.62032798 -1441.18359375 1381.05859375 C-1444.52606496 1385.15607022 -1447.79405501 1389.29479942 -1451 1393.5 C-1454.74368174 1398.41054358 -1458.59100949 1403.22020319 -1462.5 1408 C-1466.42612763 1412.80176754 -1470.30182896 1417.62990957 -1474.0625 1422.5625 C-1478.12342779 1427.88507526 -1482.27635829 1433.12475401 -1486.46899414 1438.34399414 C-1489.83942385 1442.54207853 -1493.18093915 1446.76120661 -1496.5 1451 C-1500.30428539 1455.8569574 -1504.13997867 1460.68722392 -1508 1465.5 C-1511.87763496 1470.3359692 -1515.73557846 1475.1862833 -1519.5625 1480.0625 C-1520.01383301 1480.63758301 -1520.46516602 1481.21266602 -1520.93017578 1481.80517578 C-1523.18176335 1484.67633313 -1525.42989571 1487.5501622 -1527.67578125 1490.42578125 C-1533.11824039 1497.3848618 -1538.64538923 1504.26652826 -1544.23388672 1511.10888672 C-1548.3940625 1516.21741958 -1552.41186608 1521.4168633 -1556.40625 1526.65625 C-1559.90238176 1531.20122129 -1563.55381662 1535.62032798 -1567.18359375 1540.05859375 C-1570.52606496 1544.15607022 -1573.79405501 1548.29479942 -1577 1552.5 C-1580.74368174 1557.41054358 -1584.59100949 1562.22020319 -1588.5 1567 C-1592.42612763 1571.80176754 -1596.30182896 1576.62990957 -1600.0625 1581.5625 C-1604.12342779 1586.88507526 -1608.27635829 1592.12475401 -1612.46899414 1597.34399414 C-1615.83942385 1601.54207853 -1619.18093915 1605.76120661 -1622.5 1610 C-1626.30428539 1614.8569574 -1630.13997867 1619.68722392 -1634 1624.5 C-1637.87763496 1629.3359692 -1641.73557846 1634.1862833 -1645.5625 1639.0625 C-1646.01383301 1639.63758301 -1646.46516602 1640.21266602 -1646.93017578 1640.80517578 C-1649.18176335 1643.67633313 -1651.42989571 1646.5501622 -1653.67578125 1649.42578125 C-1659.11824039 1656.3848618 -1664.64538923 1663.26652826 -1670.23388672 1670.10888672 C-1674.3940625 1675.21741958 -1678.41186608 1680.4168633 -1682.40625 1685.65625 C-1685.90238176 1690.20122129 -1689.55381662 1694.62032798 -1693.18359375 1699.05859375 C-1696.52606496 1703.15607022 -1699.79405501 1707.29479942 -1703 1711.5 C-1706.74368174 1716.41054358 -1710.59100949 1721.22020319 -1714.5 1726 C-1718.42612763 1730.80176754 -1722.30182896 1735.62990957 -1726.0625 1740.5625 C-1730.12342779 1745.88507526 -1734.27635829 1751.12475401 -1738.46899414 1756.34399414 C-1741.83942385 1760.54207853 -1745.18093915 1764.76120661 -1748.5 1769 C-1752.30428539 1773.8569574 -1756.13997867 1778.68722392 -1760 1783.5 C-1763.87763496 1788.3359692 -1767.73557846 1793.1862833 -1771.5625 1798.0625 C-1772.01383301 1798.63758301 -1772.46516602 1799.21266602 -1772.93017578 1799.80517578 C-1775.18176335 1802.67633313 -1777.42989571 1805.5501622 -1779.67578125 1808.42578125 C-1785.11824039 1815.3848618 -1790.64538923 1822.26652826 -1796.23388672 1829.10888672 C-1800.3940625 1834.21741958 -1804.41186608 1839.4168633 -1808.40625 1844.65625 C-1811.90238176 1849.20122129 -1815.55381662 1853.62032798 -1819.18359375 1858.05859375 C-1822.52606496 1862.15607022 -1825.79405501 1866.29479942 -1829 1870.5 C-1832.74368174 1875.41054358 -1836.59100949 1880.22020319 -1840.5 1885 C-1844.42612763 1889.80176754 -1848.30182896 1894.62990957 -1852.0625 1899.5625 C-1856.12342779 1904.88507526 -1860.27635829 1910.12475401 -1864.46899414 1915.34399414 C-1867.83942493 1919.54207988 -1871.18084045 1923.76128279 -1874.5 1928 C-1878.43362133 1933.01989333 -1882.39279245 1938.01854878 -1886.375 1943 C-1886.86291016 1943.61101562 -1887.35082031 1944.22203125 -1887.85351562 1944.8515625 C-1888.32208984 1945.43679688 -1888.79066406 1946.02203125 -1889.2734375 1946.625 C-1889.67997559 1947.13289063 -1890.08651367 1947.64078125 -1890.50537109 1948.1640625 C-1890.99859863 1948.76992187 -1891.49182617 1949.37578125 -1892 1950 C-1892.55762874 1951.01298471 -1893.11525747 1952.02596943 -1893.68978405 1953.06965065 C-1895.68198591 1955.41900486 -1896.79094386 1955.95949303 -1899.85577166 1956.55333781 C-1903.72986854 1956.76043341 -1907.58112622 1956.77114141 -1911.45808411 1956.7215271 C-1912.96795813 1956.72414349 -1914.4778295 1956.72939687 -1915.98768634 1956.7370621 C-1920.13831249 1956.75049149 -1924.28801138 1956.72646215 -1928.43851936 1956.69639373 C-1932.9135924 1956.67050866 -1937.38861218 1956.67924936 -1941.86373901 1956.68380737 C-1949.61767299 1956.68695514 -1957.37130429 1956.66811323 -1965.12516212 1956.63438034 C-1976.33591728 1956.58564006 -1987.54652593 1956.56999393 -1998.75737556 1956.56245239 C-2016.94567386 1956.54931714 -2035.13381081 1956.50937806 -2053.32202148 1956.45263672 C-2070.9912841 1956.39757161 -2088.6605029 1956.35509663 -2106.32983398 1956.32958984 C-2107.41877375 1956.3280135 -2108.50771352 1956.32643716 -2109.62965146 1956.32481305 C-2115.09248402 1956.31698289 -2120.55531689 1956.30940063 -2126.01814997 1956.30194163 C-2171.34554813 1956.23973045 -2216.6727587 1956.13289003 -2262 1956 C-2262.71162096 1923.1348216 -2263.24340398 1890.27135336 -2263.61141509 1857.40061448 C-2263.68189669 1851.14921869 -2263.75491648 1844.89785238 -2263.82757944 1838.64648163 C-2263.95392429 1827.74807835 -2264.07874411 1816.84965867 -2264.20246124 1805.95122528 C-2264.33487284 1794.28762533 -2264.46824358 1782.6240369 -2264.60272789 1770.96046066 C-2264.61129575 1770.21733799 -2264.61986362 1769.47421532 -2264.62869111 1768.70857378 C-2264.6724009 1764.91783157 -2264.71612577 1761.12708954 -2264.75985594 1757.33634756 C-2265.07445573 1730.06266974 -2265.38702267 1702.78896893 -2265.69847298 1675.51525497 C-2266.00647055 1648.54443111 -2266.31536186 1621.57361773 -2266.62542534 1594.60281754 C-2266.63509022 1593.76208495 -2266.64475511 1592.92135236 -2266.65471287 1592.05514303 C-2266.74300021 1584.37521141 -2266.8312984 1576.69527992 -2266.91960958 1569.01534857 C-2267.1390425 1549.93248071 -2267.3583396 1530.84961129 -2267.57754421 1511.7667408 C-2267.58752126 1510.89819752 -2267.59749831 1510.02965424 -2267.6077777 1509.13479147 C-2268.09190144 1466.98879922 -2268.57445967 1424.84278907 -2269.05688477 1382.69677734 C-2269.22408651 1368.08964014 -2269.39129521 1353.48250301 -2269.55853271 1338.87536621 C-2269.56890622 1337.96930546 -2269.57927973 1337.06324472 -2269.58996758 1336.12972758 C-2270.07313055 1293.9293092 -2270.55741299 1251.72890368 -2271.04198021 1209.5285014 C-2271.07347781 1206.78540977 -2271.10497493 1204.04231814 -2271.13647195 1201.29922651 C-2271.34522284 1183.119073 -2271.55399294 1164.9389197 -2271.76277589 1146.75876656 C-2272.17812466 1110.5915063 -2272.59336066 1074.42424475 -2273.00851905 1038.2569823 C-2273.02828546 1036.53499616 -2273.04805196 1034.81301002 -2273.06781853 1033.09102388 C-2273.95651507 955.67120911 -2274.84390038 878.25137934 -2275.73071289 800.83154297 C-2275.73900842 800.10733359 -2275.74730395 799.38312421 -2275.75585086 798.63696909 C-2276.17064758 762.42464698 -2276.58536923 726.21232401 -2277 690 C-2273.66693098 688.88361836 -2270.33321603 687.76917753 -2266.99938965 686.65505981 C-2266.06473751 686.34198033 -2265.13008537 686.02890085 -2264.16711044 685.70633411 C-2256.28758822 683.07480012 -2248.36746785 680.61540895 -2240.40625 678.2421875 C-2238.98973988 677.81716261 -2237.57332562 677.39181812 -2236.15699768 676.96618652 C-2233.16076546 676.06631032 -2230.16400551 675.16822489 -2227.16677856 674.27166748 C-2219.88995234 672.09470302 -2212.61625013 669.90733214 -2205.3422718 667.72087479 C-2203.67059741 667.21843966 -2201.99888884 666.71611824 -2200.32714653 666.21390915 C-2183.60501954 661.19040189 -2166.89828046 656.11713095 -2150.19675446 651.02560806 C-2143.75508718 649.06192437 -2137.31307492 647.09937239 -2130.87109375 645.13671875 C-2130.16703903 644.92219748 -2129.46298431 644.7076762 -2128.7375946 644.48665428 C-2113.03846716 639.70352078 -2097.3322712 634.94380941 -2081.625 630.1875 C-2076.16921011 628.53535671 -2070.71346882 626.88305307 -2065.2578125 625.23046875 C-2064.56955572 625.02198807 -2063.88129894 624.81350739 -2063.1721859 624.59870911 C-2047.46737886 619.84117362 -2031.76652791 615.07063112 -2016.06598854 610.29903412 C-2010.2214943 608.52289451 -2004.37668897 606.74778143 -1998.53173828 604.97314453 C-1995.22947576 603.97043171 -1991.92723194 602.96765729 -1988.625 601.96484375 C-1987.81127804 601.71774406 -1986.99755608 601.47064438 -1986.15917587 601.21605682 C-1975.54913732 597.99381081 -1964.94173396 594.76305755 -1954.33679199 591.52407837 C-1948.91925238 589.86959989 -1943.50066771 588.21855737 -1938.08176422 586.56855202 C-1933.75950938 585.25217734 -1929.43862303 583.93143422 -1925.1187439 582.6072855 C-1921.86166508 581.61037062 -1918.60255604 580.62015997 -1915.34375 579.62890625 C-1914.18721924 579.27284805 -1913.03068848 578.91678986 -1911.83911133 578.54994202 C-1910.23555786 578.06417946 -1910.23555786 578.06417946 -1908.59960938 577.56860352 C-1907.68095093 577.28791519 -1906.76229248 577.00722687 -1905.8157959 576.71803284 C-1902.56468513 575.88899395 -1899.32207656 575.45485784 -1896 575 C-1895.94540581 591.15402592 -1896.10498376 607.30237902 -1896.31445286 623.45489169 C-1896.36163018 627.11628738 -1896.40723239 630.77770278 -1896.45304441 634.43911576 C-1896.53329786 640.83659914 -1896.61451222 647.23406974 -1896.69637871 653.63153267 C-1896.81813336 663.14673392 -1896.93833786 672.66195432 -1897.05821259 682.17717941 C-1897.24776031 697.22050662 -1897.43823661 712.2638219 -1897.62938391 727.30712886 C-1897.93326369 751.22251779 -1898.23486312 775.13793505 -1898.53576516 799.05336161 C-1898.65183602 808.2778248 -1898.76797816 817.50228709 -1898.88411713 826.72674942 C-1898.89701895 827.75152272 -1898.90992078 828.77629601 -1898.92321358 829.83212305 C-1899.23002051 854.20042592 -1899.53749456 878.56872036 -1899.84521484 902.93701172 C-1899.85866843 904.00244549 -1899.87212201 905.06787927 -1899.88598328 906.16559892 C-1900.19942513 930.98750172 -1900.51327949 955.80939926 -1900.82794189 980.63128662 C-1900.84145035 981.69690413 -1900.8549588 982.76252163 -1900.8688766 983.86043058 C-1900.93698865 989.23335989 -1901.0051051 994.60628915 -1901.07322294 999.97921839 C-1901.08668488 1001.04105934 -1901.10014683 1002.10290028 -1901.11401672 1003.19691822 C-1901.1411881 1005.34010648 -1901.1683599 1007.48329474 -1901.19553214 1009.62648299 C-1901.64607343 1045.16357004 -1902.09450688 1080.7006832 -1902.5406249 1116.23782606 C-1902.60384595 1121.27371673 -1902.66709452 1126.30960705 -1902.73036194 1131.34549713 C-1902.74281029 1132.33636839 -1902.75525865 1133.32723965 -1902.76808422 1134.34813732 C-1902.96712838 1150.18633479 -1903.16841098 1166.02450304 -1903.37061609 1181.86266045 C-1903.57448328 1197.83395559 -1903.77610553 1213.80527785 -1903.97552812 1229.77662912 C-1904.08329533 1238.4024016 -1904.19201562 1247.02815924 -1904.30362129 1255.65388298 C-1904.77903193 1292.43728427 -1905.14334117 1329.21251283 -1905 1366 C-1902.7703976 1363.30481819 -1900.54320332 1360.60765613 -1898.31640625 1357.91015625 C-1897.69109009 1357.15432251 -1897.06577393 1356.39848877 -1896.42150879 1355.61975098 C-1892.00845851 1350.27064289 -1887.75559717 1344.82879036 -1883.55859375 1339.30859375 C-1880.6192618 1335.47382073 -1877.55901473 1331.73948491 -1874.5 1328 C-1870.59088803 1323.22030719 -1866.74367778 1318.41053839 -1863 1313.5 C-1858.71879744 1307.88439664 -1854.2865719 1302.40724685 -1849.81640625 1296.94140625 C-1846.47393504 1292.84392978 -1843.20594499 1288.70520058 -1840 1284.5 C-1835.71879744 1278.88439664 -1831.2865719 1273.40724685 -1826.81640625 1267.94140625 C-1823.47393504 1263.84392978 -1820.20594499 1259.70520058 -1817 1255.5 C-1812.71879744 1249.88439664 -1808.2865719 1244.40724685 -1803.81640625 1238.94140625 C-1799.63261611 1233.81257175 -1795.59481671 1228.59206974 -1791.58203125 1223.328125 C-1788.69352598 1219.57295545 -1785.69004287 1215.91414272 -1782.6875 1212.25 C-1778.1984943 1206.76944421 -1773.83626783 1201.21234571 -1769.5625 1195.5625 C-1764.54447915 1188.93268538 -1759.33696967 1182.48955159 -1754.02197266 1176.09619141 C-1749.73390186 1170.92679693 -1745.62386477 1165.65552657 -1741.55859375 1160.30859375 C-1738.6192618 1156.47382073 -1735.55901473 1152.73948491 -1732.5 1149 C-1727.74723816 1143.18877184 -1723.13347747 1137.29868127 -1718.58203125 1131.328125 C-1715.69352598 1127.57295545 -1712.69004287 1123.91414272 -1709.6875 1120.25 C-1705.1984943 1114.76944421 -1700.83626783 1109.21234571 -1696.5625 1103.5625 C-1691.54447915 1096.93268538 -1686.33696967 1090.48955159 -1681.02197266 1084.09619141 C-1676.73390186 1078.92679693 -1672.62386477 1073.65552657 -1668.55859375 1068.30859375 C-1665.6192618 1064.47382073 -1662.55901473 1060.73948491 -1659.5 1057 C-1654.74723816 1051.18877184 -1650.13347747 1045.29868127 -1645.58203125 1039.328125 C-1642.69352598 1035.57295545 -1639.69004287 1031.91414272 -1636.6875 1028.25 C-1632.1984943 1022.76944421 -1627.83626783 1017.21234571 -1623.5625 1011.5625 C-1618.54447915 1004.93268538 -1613.33696967 998.48955159 -1608.02197266 992.09619141 C-1603.73390186 986.92679693 -1599.62386477 981.65552657 -1595.55859375 976.30859375 C-1592.6192618 972.47382073 -1589.55901473 968.73948491 -1586.5 965 C-1581.74723816 959.18877184 -1577.13347747 953.29868127 -1572.58203125 947.328125 C-1569.69352598 943.57295545 -1566.69004287 939.91414272 -1563.6875 936.25 C-1559.1984943 930.76944421 -1554.83626783 925.21234571 -1550.5625 919.5625 C-1545.54447915 912.93268538 -1540.33696967 906.48955159 -1535.02197266 900.09619141 C-1530.73390186 894.92679693 -1526.62386477 889.65552657 -1522.55859375 884.30859375 C-1519.6192618 880.47382073 -1516.55901473 876.73948491 -1513.5 873 C-1508.74723816 867.18877184 -1504.13347747 861.29868127 -1499.58203125 855.328125 C-1496.69352598 851.57295545 -1493.69004287 847.91414272 -1490.6875 844.25 C-1486.1984943 838.76944421 -1481.83626783 833.21234571 -1477.5625 827.5625 C-1472.54447915 820.93268538 -1467.33696967 814.48955159 -1462.02197266 808.09619141 C-1457.73390186 802.92679693 -1453.62386477 797.65552657 -1449.55859375 792.30859375 C-1446.6192618 788.47382073 -1443.55901473 784.73948491 -1440.5 781 C-1435.74723816 775.18877184 -1431.13347747 769.29868127 -1426.58203125 763.328125 C-1423.69352598 759.57295545 -1420.69004287 755.91414272 -1417.6875 752.25 C-1413.1984943 746.76944421 -1408.83626783 741.21234571 -1404.5625 735.5625 C-1399.54447915 728.93268538 -1394.33696967 722.48955159 -1389.02197266 716.09619141 C-1384.73390186 710.92679693 -1380.62386477 705.65552657 -1376.55859375 700.30859375 C-1373.6192618 696.47382073 -1370.55901473 692.73948491 -1367.5 689 C-1362.74723816 683.18877184 -1358.13347747 677.29868127 -1353.58203125 671.328125 C-1350.69352598 667.57295545 -1347.69004287 663.91414272 -1344.6875 660.25 C-1340.1984943 654.76944421 -1335.83626783 649.21234571 -1331.5625 643.5625 C-1326.54447915 636.93268538 -1321.33696967 630.48955159 -1316.02197266 624.09619141 C-1311.73390186 618.92679693 -1307.62386477 613.65552657 -1303.55859375 608.30859375 C-1300.6192618 604.47382073 -1297.55901473 600.73948491 -1294.5 597 C-1289.74723816 591.18877184 -1285.13347747 585.29868127 -1280.58203125 579.328125 C-1277.69352598 575.57295545 -1274.69004287 571.91414272 -1271.6875 568.25 C-1267.1984943 562.76944421 -1262.83626783 557.21234571 -1258.5625 551.5625 C-1253.54447915 544.93268538 -1248.33696967 538.48955159 -1243.02197266 532.09619141 C-1238.73390186 526.92679693 -1234.62386477 521.65552657 -1230.55859375 516.30859375 C-1227.6192618 512.47382073 -1224.55901473 508.73948491 -1221.5 505 C-1216.74723816 499.18877184 -1212.13347747 493.29868127 -1207.58203125 487.328125 C-1204.69352598 483.57295545 -1201.69004287 479.91414272 -1198.6875 476.25 C-1194.1984943 470.76944421 -1189.83626783 465.21234571 -1185.5625 459.5625 C-1180.54509475 452.9334987 -1175.33785461 446.4914949 -1170.02416992 440.09838867 C-1166.55682152 435.91770179 -1163.16534918 431.69630294 -1159.875 427.375 C-1156.11816845 422.45117924 -1152.33550928 417.55039831 -1148.5 412.6875 C-1147.9829248 412.02218262 -1147.46584961 411.35686523 -1146.93310547 410.67138672 C-1145.66856469 409.07626909 -1144.33966852 407.53256382 -1143 406 C-1142.34 406 -1141.68 406 -1141 406 C-1139.27212827 408.00518448 -1137.65980474 410.0190347 -1136.0625 412.125 C-1135.06130859 413.42196045 -1134.06000348 414.71883312 -1133.05859375 416.015625 C-1132.54796387 416.68142578 -1132.03733398 417.34722656 -1131.51123047 418.03320312 C-1129.23502272 420.99558271 -1126.93236239 423.93685702 -1124.625 426.875 C-1124.17785645 427.44549072 -1123.73071289 428.01598145 -1123.27001953 428.60375977 C-1119.71004506 433.13195179 -1116.08106832 437.60144396 -1112.4375 442.0625 C-1107.70751543 447.85372563 -1103.115333 453.72512052 -1098.58203125 459.671875 C-1095.69352598 463.42704455 -1092.69004287 467.08585728 -1089.6875 470.75 C-1085.1984943 476.23055579 -1080.83626783 481.78765429 -1076.5625 487.4375 C-1071.54447915 494.06731462 -1066.33696967 500.51044841 -1061.02197266 506.90380859 C-1056.72973422 512.07822728 -1052.61592764 517.3547643 -1048.546875 522.70703125 C-1045.67473144 526.45424549 -1042.6801283 530.09883414 -1039.6875 533.75 C-1035.19842419 539.23049578 -1030.83626544 544.78765746 -1026.5625 550.4375 C-1021.54447915 557.06731462 -1016.33696967 563.51044841 -1011.02197266 569.90380859 C-1006.73390186 575.07320307 -1002.62386477 580.34447343 -998.55859375 585.69140625 C-995.6192618 589.52617927 -992.55901473 593.26051509 -989.5 597 C-984.74723816 602.81122816 -980.13347747 608.70131873 -975.58203125 614.671875 C-972.69352598 618.42704455 -969.69004287 622.08585728 -966.6875 625.75 C-962.1984943 631.23055579 -957.83626783 636.78765429 -953.5625 642.4375 C-948.54447915 649.06731462 -943.33696967 655.51044841 -938.02197266 661.90380859 C-933.72973422 667.07822728 -929.61592764 672.3547643 -925.546875 677.70703125 C-922.67473144 681.45424549 -919.6801283 685.09883414 -916.6875 688.75 C-912.19842419 694.23049578 -907.83626544 699.78765746 -903.5625 705.4375 C-898.54447915 712.06731462 -893.33696967 718.51044841 -888.02197266 724.90380859 C-883.73390186 730.07320307 -879.62386477 735.34447343 -875.55859375 740.69140625 C-872.6192618 744.52617927 -869.55901473 748.26051509 -866.5 752 C-861.74723816 757.81122816 -857.13347747 763.70131873 -852.58203125 769.671875 C-849.69352598 773.42704455 -846.69004287 777.08585728 -843.6875 780.75 C-839.1984943 786.23055579 -834.83626783 791.78765429 -830.5625 797.4375 C-825.54447915 804.06731462 -820.33696967 810.51044841 -815.02197266 816.90380859 C-810.72973422 822.07822728 -806.61592764 827.3547643 -802.546875 832.70703125 C-799.67473144 836.45424549 -796.6801283 840.09883414 -793.6875 843.75 C-789.19842419 849.23049578 -784.83626544 854.78765746 -780.5625 860.4375 C-775.54447915 867.06731462 -770.33696967 873.51044841 -765.02197266 879.90380859 C-760.73390186 885.07320307 -756.62386477 890.34447343 -752.55859375 895.69140625 C-749.6192618 899.52617927 -746.55901473 903.26051509 -743.5 907 C-738.74723816 912.81122816 -734.13347747 918.70131873 -729.58203125 924.671875 C-726.69352598 928.42704455 -723.69004287 932.08585728 -720.6875 935.75 C-716.1984943 941.23055579 -711.83626783 946.78765429 -707.5625 952.4375 C-702.54447915 959.06731462 -697.33696967 965.51044841 -692.02197266 971.90380859 C-687.72973422 977.07822728 -683.61592764 982.3547643 -679.546875 987.70703125 C-676.67473144 991.45424549 -673.6801283 995.09883414 -670.6875 998.75 C-666.19842419 1004.23049578 -661.83626544 1009.78765746 -657.5625 1015.4375 C-652.54447915 1022.06731462 -647.33696967 1028.51044841 -642.02197266 1034.90380859 C-637.73390186 1040.07320307 -633.62386477 1045.34447343 -629.55859375 1050.69140625 C-626.6192618 1054.52617927 -623.55901473 1058.26051509 -620.5 1062 C-615.74723816 1067.81122816 -611.13347747 1073.70131873 -606.58203125 1079.671875 C-603.69352598 1083.42704455 -600.69004287 1087.08585728 -597.6875 1090.75 C-593.1984943 1096.23055579 -588.83626783 1101.78765429 -584.5625 1107.4375 C-579.54447915 1114.06731462 -574.33696967 1120.51044841 -569.02197266 1126.90380859 C-564.72973422 1132.07822728 -560.61592764 1137.3547643 -556.546875 1142.70703125 C-553.67473144 1146.45424549 -550.6801283 1150.09883414 -547.6875 1153.75 C-543.19842419 1159.23049578 -538.83626544 1164.78765746 -534.5625 1170.4375 C-529.54447915 1177.06731462 -524.33696967 1183.51044841 -519.02197266 1189.90380859 C-514.73390186 1195.07320307 -510.62386477 1200.34447343 -506.55859375 1205.69140625 C-503.6192618 1209.52617927 -500.55901473 1213.26051509 -497.5 1217 C-492.74723816 1222.81122816 -488.13347747 1228.70131873 -483.58203125 1234.671875 C-480.69352598 1238.42704455 -477.69004287 1242.08585728 -474.6875 1245.75 C-470.1984943 1251.23055579 -465.83626783 1256.78765429 -461.5625 1262.4375 C-456.54447915 1269.06731462 -451.33696967 1275.51044841 -446.02197266 1281.90380859 C-441.72973422 1287.07822728 -437.61592764 1292.3547643 -433.546875 1297.70703125 C-430.67473144 1301.45424549 -427.6801283 1305.09883414 -424.6875 1308.75 C-420.19842419 1314.23049578 -415.83626544 1319.78765746 -411.5625 1325.4375 C-406.55201121 1332.05736326 -401.3524029 1338.4908632 -396.04614258 1344.87524414 C-390.1124255 1352.0300423 -384.15934658 1359.26098013 -379 1367 C-378.88102572 1343.34074457 -379.22166164 1319.68723472 -379.52408811 1296.03046037 C-379.60227829 1289.88539545 -379.67855048 1283.74030666 -379.75507402 1277.5952208 C-379.88919575 1266.84554852 -380.02450294 1256.09589183 -380.16063118 1245.34624481 C-380.30653428 1233.824147 -380.45171216 1222.30204037 -380.59602165 1210.77992249 C-380.60517076 1210.04945805 -380.61431988 1209.31899362 -380.62374624 1208.56639389 C-380.6704031 1204.84102741 -380.71704776 1201.11566077 -380.76368766 1197.39029407 C-381.10049265 1170.48962887 -381.43882693 1143.58898308 -381.77793884 1116.68834686 C-382.11374382 1090.04938584 -382.44874685 1063.4104149 -382.7827301 1036.77143097 C-382.79312221 1035.94255777 -382.80351431 1035.11368457 -382.81422132 1034.259694 C-382.93034966 1024.99716603 -383.04645358 1015.73463775 -383.16254789 1006.47210935 C-383.37723702 989.34333478 -383.59203493 972.21456157 -383.80686188 955.08578873 C-383.8176087 954.2289023 -383.82835552 953.37201587 -383.83942801 952.48916319 C-384.35045049 911.74380595 -384.86248362 870.99846143 -385.37473018 830.25311956 C-385.40870005 827.55107021 -385.44266948 824.84902085 -385.4766388 822.14697148 C-385.68107266 805.88555777 -385.88551669 789.62414418 -386.08997115 773.36273073 C-386.57919831 734.45171552 -387.06832935 695.54069911 -387.55733977 656.62968118 C-387.59129959 653.92747438 -387.62525988 651.22526758 -387.65922023 648.52306078 C-388.17095444 607.80439213 -388.68242358 567.08572018 -389.19313812 526.36703873 C-389.20924663 525.08274247 -389.20924663 525.08274247 -389.22568056 523.77250083 C-389.44025618 506.6647783 -389.65479787 489.55705534 -389.86926326 472.44933142 C-389.98524848 463.19732272 -390.1012502 453.94531423 -390.2172699 444.69330597 C-390.22764858 443.86564609 -390.23802726 443.03798622 -390.24872044 442.18524574 C-390.59300185 414.73098573 -390.93840868 387.27673999 -391.28436016 359.82250098 C-391.61196533 333.8238388 -391.93873416 307.82516625 -392.26447448 281.82648064 C-392.31096649 278.1158114 -392.35746909 274.40514229 -392.40397835 270.69447327 C-392.41309453 269.96713011 -392.4222107 269.23978695 -392.43160313 268.49040308 C-392.57563772 257.00057209 -392.72060274 245.51075303 -392.86596391 234.02093875 C-393.00907595 222.70744198 -393.15117744 211.39393296 -393.29229326 200.08041108 C-393.36772262 194.0354555 -393.44358407 187.99050623 -393.52067763 181.94557163 C-393.59094722 176.43509036 -393.65992171 170.92459437 -393.72790901 165.41408448 C-393.7524344 163.44402757 -393.77741211 161.47397622 -393.80292615 159.50393187 C-393.97744156 146.00200138 -394.02987383 132.50303475 -394 119 C-392.73374421 118.52097659 -391.46708647 118.04301564 -390.20026302 117.56549549 C-389.14227376 117.16607564 -389.14227376 117.16607564 -388.06291097 116.7585867 C-385.28368187 115.73659095 -382.47277678 114.85346998 -379.64086914 113.98901367 C-377.82857819 113.43386078 -377.82857819 113.43386078 -375.97967529 112.86749268 C-374.66485769 112.46757876 -373.35001726 112.0677399 -372.03515625 111.66796875 C-370.63375111 111.23991656 -369.23240588 110.8116682 -367.83111572 110.38323975 C-364.0370961 109.22408592 -360.24204549 108.06834269 -356.44675064 106.91337204 C-354.04567275 106.18237704 -351.64490173 105.45038293 -349.24423218 104.7180481 C-322.99449476 96.71058894 -296.72266152 88.77720921 -270.44242954 80.87050152 C-249.24208914 74.49186995 -228.05299127 68.0774454 -206.875 61.625 C-206.17566345 61.41194214 -205.4763269 61.19888428 -204.75579834 60.97937012 C-199.04383151 59.23916576 -193.33190849 57.4988176 -187.62007523 55.7581749 C-170.02526522 50.39631406 -152.42643215 45.04770539 -134.82691193 39.70132828 C-132.3232182 38.94075597 -129.81953725 38.18014159 -127.31585693 37.41952515 C-101.69050159 29.63480555 -76.06177627 21.86123099 -50.42957783 14.09907246 C-49.13177062 13.70603803 -47.83397924 13.31295135 -46.53620434 12.9198103 C-43.45898453 11.9876414 -40.38151953 11.05629848 -37.30363464 10.12632751 C-31.59723963 8.40076992 -25.89578436 6.66150475 -20.203125 4.89111328 C-19.13783569 4.56148087 -18.07254639 4.23184845 -16.97497559 3.89222717 C-14.99051295 3.27735675 -13.00741519 2.65805615 -11.02600098 2.03343201 C-9.71858948 1.62931847 -9.71858948 1.62931847 -8.38476562 1.21704102 C-7.62989868 0.98066422 -6.87503174 0.74428741 -6.09729004 0.50074768 C-4 0 -4 0 0 0 Z " fill="#1C82A0" transform="translate(2618,501)"/>
</svg>
